<svg height="610" id="vis" style="background-color:white" viewBox="-5 -5 1910 610" width="1910" xmlns="http://www.w3.org/2000/svg">
<style>
text {text-anchor: middle; dominant-baseline: central; user-select: none;}
</style>
<rect fill="#dae3f3" height="120" stroke="#1f77b4" stroke-width="2" width="120" x="0" y="0">
<title>
(l, w, h) = (0, 0, 0)
</title>
</rect>
<rect fill="#dae3f3" height="120" stroke="#1f77b4" stroke-width="2" width="120" x="0" y="120">
<title>
(l, w, h) = (0, 0, 1)
</title>
</rect>
<rect fill="#dae3f3" height="120" stroke="#1f77b4" stroke-width="2" width="120" x="0" y="240">
<title>
(l, w, h) = (0, 0, 2)
</title>
</rect>
<rect fill="#dae3f3" height="120" stroke="#1f77b4" stroke-width="2" width="120" x="0" y="360">
<title>
(l, w, h) = (0, 0, 3)
</title>
</rect>
<rect fill="#dae3f3" height="120" stroke="#1f77b4" stroke-width="2" width="120" x="0" y="480">
<title>
(l, w, h) = (0, 0, 4)
</title>
</rect>
<rect fill="#dae3f3" height="120" stroke="#1f77b4" stroke-width="2" width="120" x="120" y="0">
<title>
(l, w, h) = (0, 1, 0)
</title>
</rect>
<rect fill="#dae3f3" height="120" stroke="#1f77b4" stroke-width="2" width="120" x="120" y="120">
<title>
(l, w, h) = (0, 1, 1)
</title>
</rect>
<rect fill="#dae3f3" height="120" stroke="#1f77b4" stroke-width="2" width="120" x="120" y="240">
<title>
(l, w, h) = (0, 1, 2)
</title>
</rect>
<rect fill="#dae3f3" height="120" stroke="#1f77b4" stroke-width="2" width="120" x="120" y="360">
<title>
(l, w, h) = (0, 1, 3)
</title>
</rect>
<rect fill="#dae3f3" height="120" stroke="#1f77b4" stroke-width="2" width="120" x="120" y="480">
<title>
(l, w, h) = (0, 1, 4)
</title>
</rect>
<rect fill="#dae3f3" height="120" stroke="#1f77b4" stroke-width="2" width="120" x="240" y="0">
<title>
(l, w, h) = (0, 2, 0)
</title>
</rect>
<rect fill="#dae3f3" height="120" stroke="#1f77b4" stroke-width="2" width="120" x="240" y="120">
<title>
(l, w, h) = (0, 2, 1)
</title>
</rect>
<rect fill="#dae3f3" height="120" stroke="#1f77b4" stroke-width="2" width="120" x="240" y="240">
<title>
(l, w, h) = (0, 2, 2)
</title>
</rect>
<rect fill="#dae3f3" height="120" stroke="#1f77b4" stroke-width="2" width="120" x="240" y="360">
<title>
(l, w, h) = (0, 2, 3)
</title>
</rect>
<rect fill="#dae3f3" height="120" stroke="#1f77b4" stroke-width="2" width="120" x="240" y="480">
<title>
(l, w, h) = (0, 2, 4)
</title>
</rect>
<rect fill="#dae3f3" height="120" stroke="#1f77b4" stroke-width="2" width="120" x="360" y="0">
<title>
(l, w, h) = (0, 3, 0)
</title>
</rect>
<rect fill="#dae3f3" height="120" stroke="#1f77b4" stroke-width="2" width="120" x="360" y="120">
<title>
(l, w, h) = (0, 3, 1)
</title>
</rect>
<rect fill="#dae3f3" height="120" stroke="#1f77b4" stroke-width="2" width="120" x="360" y="240">
<title>
(l, w, h) = (0, 3, 2)
</title>
</rect>
<rect fill="#dae3f3" height="120" stroke="#1f77b4" stroke-width="2" width="120" x="360" y="360">
<title>
(l, w, h) = (0, 3, 3)
</title>
</rect>
<rect fill="#dae3f3" height="120" stroke="#1f77b4" stroke-width="2" width="120" x="360" y="480">
<title>
(l, w, h) = (0, 3, 4)
</title>
</rect>
<rect fill="#dae3f3" height="120" stroke="#1f77b4" stroke-width="2" width="120" x="480" y="0">
<title>
(l, w, h) = (0, 4, 0)
</title>
</rect>
<rect fill="#dae3f3" height="120" stroke="#1f77b4" stroke-width="2" width="120" x="480" y="120">
<title>
(l, w, h) = (0, 4, 1)
</title>
</rect>
<rect fill="#dae3f3" height="120" stroke="#1f77b4" stroke-width="2" width="120" x="480" y="240">
<title>
(l, w, h) = (0, 4, 2)
</title>
</rect>
<rect fill="#dae3f3" height="120" stroke="#1f77b4" stroke-width="2" width="120" x="480" y="360">
<title>
(l, w, h) = (0, 4, 3)
</title>
</rect>
<rect fill="#dae3f3" height="120" stroke="#1f77b4" stroke-width="2" width="120" x="480" y="480">
<title>
(l, w, h) = (0, 4, 4)
</title>
</rect>
<rect fill="#dae3f3" height="120" stroke="#1f77b4" stroke-width="2" width="120" x="650" y="0">
<title>
(l, w, h) = (1, 0, 0)
</title>
</rect>
<rect fill="#dae3f3" height="120" stroke="#1f77b4" stroke-width="2" width="120" x="650" y="120">
<title>
(l, w, h) = (1, 0, 1)
</title>
</rect>
<rect fill="#dae3f3" height="120" stroke="#1f77b4" stroke-width="2" width="120" x="650" y="240">
<title>
(l, w, h) = (1, 0, 2)
</title>
</rect>
<rect fill="#dae3f3" height="120" stroke="#1f77b4" stroke-width="2" width="120" x="650" y="360">
<title>
(l, w, h) = (1, 0, 3)
</title>
</rect>
<rect fill="#dae3f3" height="120" stroke="#1f77b4" stroke-width="2" width="120" x="650" y="480">
<title>
(l, w, h) = (1, 0, 4)
</title>
</rect>
<rect fill="#dae3f3" height="120" stroke="#1f77b4" stroke-width="2" width="120" x="770" y="0">
<title>
(l, w, h) = (1, 1, 0)
</title>
</rect>
<rect fill="#dae3f3" height="120" stroke="#1f77b4" stroke-width="2" width="120" x="770" y="120">
<title>
(l, w, h) = (1, 1, 1)
</title>
</rect>
<rect fill="#dae3f3" height="120" stroke="#1f77b4" stroke-width="2" width="120" x="770" y="240">
<title>
(l, w, h) = (1, 1, 2)
</title>
</rect>
<rect fill="#dae3f3" height="120" stroke="#1f77b4" stroke-width="2" width="120" x="770" y="360">
<title>
(l, w, h) = (1, 1, 3)
</title>
</rect>
<rect fill="#dae3f3" height="120" stroke="#1f77b4" stroke-width="2" width="120" x="770" y="480">
<title>
(l, w, h) = (1, 1, 4)
</title>
</rect>
<rect fill="#dae3f3" height="120" stroke="#1f77b4" stroke-width="2" width="120" x="890" y="0">
<title>
(l, w, h) = (1, 2, 0)
</title>
</rect>
<rect fill="#dae3f3" height="120" stroke="#1f77b4" stroke-width="2" width="120" x="890" y="120">
<title>
(l, w, h) = (1, 2, 1)
</title>
</rect>
<rect fill="#dae3f3" height="120" stroke="#1f77b4" stroke-width="2" width="120" x="890" y="240">
<title>
(l, w, h) = (1, 2, 2)
</title>
</rect>
<rect fill="#dae3f3" height="120" stroke="#1f77b4" stroke-width="2" width="120" x="890" y="360">
<title>
(l, w, h) = (1, 2, 3)
</title>
</rect>
<rect fill="#dae3f3" height="120" stroke="#1f77b4" stroke-width="2" width="120" x="890" y="480">
<title>
(l, w, h) = (1, 2, 4)
</title>
</rect>
<rect fill="#dae3f3" height="120" stroke="#1f77b4" stroke-width="2" width="120" x="1010" y="0">
<title>
(l, w, h) = (1, 3, 0)
</title>
</rect>
<rect fill="#dae3f3" height="120" stroke="#1f77b4" stroke-width="2" width="120" x="1010" y="120">
<title>
(l, w, h) = (1, 3, 1)
</title>
</rect>
<rect fill="#dae3f3" height="120" stroke="#1f77b4" stroke-width="2" width="120" x="1010" y="240">
<title>
(l, w, h) = (1, 3, 2)
</title>
</rect>
<rect fill="#dae3f3" height="120" stroke="#1f77b4" stroke-width="2" width="120" x="1010" y="360">
<title>
(l, w, h) = (1, 3, 3)
</title>
</rect>
<rect fill="#dae3f3" height="120" stroke="#1f77b4" stroke-width="2" width="120" x="1010" y="480">
<title>
(l, w, h) = (1, 3, 4)
</title>
</rect>
<rect fill="#dae3f3" height="120" stroke="#1f77b4" stroke-width="2" width="120" x="1130" y="0">
<title>
(l, w, h) = (1, 4, 0)
</title>
</rect>
<rect fill="#dae3f3" height="120" stroke="#1f77b4" stroke-width="2" width="120" x="1130" y="120">
<title>
(l, w, h) = (1, 4, 1)
</title>
</rect>
<rect fill="#dae3f3" height="120" stroke="#1f77b4" stroke-width="2" width="120" x="1130" y="240">
<title>
(l, w, h) = (1, 4, 2)
</title>
</rect>
<rect fill="#dae3f3" height="120" stroke="#1f77b4" stroke-width="2" width="120" x="1130" y="360">
<title>
(l, w, h) = (1, 4, 3)
</title>
</rect>
<rect fill="#dae3f3" height="120" stroke="#1f77b4" stroke-width="2" width="120" x="1130" y="480">
<title>
(l, w, h) = (1, 4, 4)
</title>
</rect>
<rect fill="#dae3f3" height="120" stroke="#1f77b4" stroke-width="2" width="120" x="1300" y="0">
<title>
(l, w, h) = (2, 0, 0)
</title>
</rect>
<rect fill="#dae3f3" height="120" stroke="#1f77b4" stroke-width="2" width="120" x="1300" y="120">
<title>
(l, w, h) = (2, 0, 1)
</title>
</rect>
<rect fill="#dae3f3" height="120" stroke="#1f77b4" stroke-width="2" width="120" x="1300" y="240">
<title>
(l, w, h) = (2, 0, 2)
</title>
</rect>
<rect fill="#dae3f3" height="120" stroke="#1f77b4" stroke-width="2" width="120" x="1300" y="360">
<title>
(l, w, h) = (2, 0, 3)
</title>
</rect>
<rect fill="#dae3f3" height="120" stroke="#1f77b4" stroke-width="2" width="120" x="1300" y="480">
<title>
(l, w, h) = (2, 0, 4)
</title>
</rect>
<rect fill="#dae3f3" height="120" stroke="#1f77b4" stroke-width="2" width="120" x="1420" y="0">
<title>
(l, w, h) = (2, 1, 0)
</title>
</rect>
<rect fill="#dae3f3" height="120" stroke="#1f77b4" stroke-width="2" width="120" x="1420" y="120">
<title>
(l, w, h) = (2, 1, 1)
</title>
</rect>
<rect fill="#dae3f3" height="120" stroke="#1f77b4" stroke-width="2" width="120" x="1420" y="240">
<title>
(l, w, h) = (2, 1, 2)
</title>
</rect>
<rect fill="#dae3f3" height="120" stroke="#1f77b4" stroke-width="2" width="120" x="1420" y="360">
<title>
(l, w, h) = (2, 1, 3)
</title>
</rect>
<rect fill="#dae3f3" height="120" stroke="#1f77b4" stroke-width="2" width="120" x="1420" y="480">
<title>
(l, w, h) = (2, 1, 4)
</title>
</rect>
<rect fill="#dae3f3" height="120" stroke="#1f77b4" stroke-width="2" width="120" x="1540" y="0">
<title>
(l, w, h) = (2, 2, 0)
</title>
</rect>
<rect fill="#dae3f3" height="120" stroke="#1f77b4" stroke-width="2" width="120" x="1540" y="120">
<title>
(l, w, h) = (2, 2, 1)
</title>
</rect>
<rect fill="#dae3f3" height="120" stroke="#1f77b4" stroke-width="2" width="120" x="1540" y="240">
<title>
(l, w, h) = (2, 2, 2)
</title>
</rect>
<rect fill="#dae3f3" height="120" stroke="#1f77b4" stroke-width="2" width="120" x="1540" y="360">
<title>
(l, w, h) = (2, 2, 3)
</title>
</rect>
<rect fill="#dae3f3" height="120" stroke="#1f77b4" stroke-width="2" width="120" x="1540" y="480">
<title>
(l, w, h) = (2, 2, 4)
</title>
</rect>
<rect fill="#dae3f3" height="120" stroke="#1f77b4" stroke-width="2" width="120" x="1660" y="0">
<title>
(l, w, h) = (2, 3, 0)
</title>
</rect>
<rect fill="#dae3f3" height="120" stroke="#1f77b4" stroke-width="2" width="120" x="1660" y="120">
<title>
(l, w, h) = (2, 3, 1)
</title>
</rect>
<rect fill="#dae3f3" height="120" stroke="#1f77b4" stroke-width="2" width="120" x="1660" y="240">
<title>
(l, w, h) = (2, 3, 2)
</title>
</rect>
<rect fill="#dae3f3" height="120" stroke="#1f77b4" stroke-width="2" width="120" x="1660" y="360">
<title>
(l, w, h) = (2, 3, 3)
</title>
</rect>
<rect fill="#dae3f3" height="120" stroke="#1f77b4" stroke-width="2" width="120" x="1660" y="480">
<title>
(l, w, h) = (2, 3, 4)
</title>
</rect>
<rect fill="#dae3f3" height="120" stroke="#1f77b4" stroke-width="2" width="120" x="1780" y="0">
<title>
(l, w, h) = (2, 4, 0)
</title>
</rect>
<rect fill="#dae3f3" height="120" stroke="#1f77b4" stroke-width="2" width="120" x="1780" y="120">
<title>
(l, w, h) = (2, 4, 1)
</title>
</rect>
<rect fill="#dae3f3" height="120" stroke="#1f77b4" stroke-width="2" width="120" x="1780" y="240">
<title>
(l, w, h) = (2, 4, 2)
</title>
</rect>
<rect fill="#dae3f3" height="120" stroke="#1f77b4" stroke-width="2" width="120" x="1780" y="360">
<title>
(l, w, h) = (2, 4, 3)
</title>
</rect>
<rect fill="#dae3f3" height="120" stroke="#1f77b4" stroke-width="2" width="120" x="1780" y="480">
<title>
(l, w, h) = (2, 4, 4)
</title>
</rect>
<rect fill="#000080" height="118" stroke="" stroke-width="0" width="118" x="1" y="1">
<title>
Qubit 1, (l, w, h) = (0, 0, 0)
</title>
</rect>
<rect fill="#0080ff" height="118" stroke="" stroke-width="0" width="118" x="121" y="1">
<title>
Qubit 2, (l, w, h) = (0, 1, 0)
</title>
</rect>
<rect fill="#7bff7b" height="118" stroke="" stroke-width="0" width="118" x="241" y="1">
<title>
Qubit 3, (l, w, h) = (0, 2, 0)
</title>
</rect>
<rect fill="#ff9700" height="118" stroke="" stroke-width="0" width="118" x="361" y="1">
<title>
Qubit 4, (l, w, h) = (0, 3, 0)
</title>
</rect>
<rect fill="#ff7f0e" height="118" stroke="" stroke-width="0" width="118" x="241" y="121">
<title>
Qubit 5, (l, w, h) = (0, 2, 1)
</title>
</rect>
<rect fill="#ff7f0e" height="118" stroke="" stroke-width="0" width="118" x="771" y="121">
<title>
Qubit 6, (l, w, h) = (1, 1, 1)
</title>
</rect>
<rect fill="#111111" height="624" width="5" x="622.5" y="-12"/>
<rect fill="#111111" height="624" width="5" x="1272.5" y="-12"/>
<text fill="black" font-size="60" x="60" y="60">
1
</text>
<text fill="black" font-size="60" x="180" y="60">
2
</text>
<text fill="black" font-size="60" x="300" y="60">
3
</text>
<text fill="black" font-size="60" x="420" y="60">
4
</text>
</svg>